# xmcd CD database file
#
# Track frame offsets:
#	150
#	42245
#	74130
#	88542
#	126505
#	157990
#	196005
#	222025
#	251710
#	264195
#	286797
#
# Disc length: 4185 seconds
#
# Revision: 0
# Processed by: cddbd v1.5.1PL2 Copyright (c) Steve Scherf et al.
# Submitted via: CDex 1.51
#
DISCID=9b10570b
DTITLE=Various Artist - The Colors Of Jazz
DYEAR=1900
DGENRE=Jazz
TTITLE0=Herbie Hancock - Dolphin Dance
TTITLE1=Jimmy Smith - Lover Man
TTITLE2=Duke Ellington and Louis Armstrong - I'm Just A Lucky So And So
TTITLE3=Eric Dolphy - Hat And Beard
TTITLE4=Hank Mobley - No Room For Squares
TTITLE5=Medeski Martin and Wood - Afrique
TTITLE6=Eric Truffaz - The Dawn
TTITLE7=Charlie Hunter - Nothin' But Trouble
TTITLE8=Jason Moran - Thief Without Loot
TTITLE9=Jazz Mandolin Project feat. Trey Anastasio - Hang Ten
TTITLE10=Dianne Reeves - Mista
EXTD=
EXTT0=
EXTT1=
EXTT2=
EXTT3=
EXTT4=
EXTT5=
EXTT6=
EXTT7=
EXTT8=
EXTT9=
EXTT10=
PLAYORDER=
